<svg aria-hidden="true" style="position: absolute; width: 0; height: 0; overflow: hidden;" version="1.1" xmlns="http://www.w3.org/2000/svg" xmlns:xlink="http://www.w3.org/1999/xlink">
<defs>
<symbol id="icon-facebook" viewBox="0 0 40 40">
<path fill="#4a7aff" style="fill: var(--color1, #4a7aff)" d="M32 16c0 8.837-7.163 16-16 16s-16-7.163-16-16c0-8.837 7.163-16 16-16s16 7.163 16 16z"></path>
<path fill="#0053bf" style="fill: var(--color2, #0053bf)" d="M16.702 31.984c8.511-0.367 15.298-7.383 15.298-15.984 0-0.062-0.002-0.124-0.002-0.187l-11.106-11.106-11.875 12.412 6.598 6.598-3.042 4.137 4.13 4.13z"></path>
<path fill="#fff" style="fill: var(--color3, #fff)" d="M20.891 4.707v3.623c0 0-4.16-0.604-4.16 2.080v2.684h3.757l-0.47 4.093h-3.288v10.667h-4.16v-10.667l-3.556-0.067v-4.025h3.489v-3.086c0 0-0.23-4.591 4.294-5.434 1.879-0.35 4.093 0.134 4.093 0.134z"></path>
<path fill="#dce1eb" style="fill: var(--color4, #dce1eb)" d="M20.891 8.33v-3.623c0 0-2.214-0.484-4.093-0.134-0.294 0.055-0.566 0.125-0.821 0.209v23.071h0.754v-10.667h3.287l0.47-4.093h-3.757c0 0 0 0 0-2.684s4.16-2.080 4.16-2.080z"></path>
</symbol>
<symbol id="icon-instagram" viewBox="0 0 40 40">
<path fill="#6c27b3" style="fill: var(--color5, #6c27b3)" d="M16 32c8.837 0 16-7.163 16-16s-7.163-16-16-16c-8.837 0-16 7.163-16 16s7.163 16 16 16z"></path>
<path fill="#501a96" style="fill: var(--color6, #501a96)" d="M23.419 8.308c-1.912 0.242-3.905 0.234-5.911 0.043-2.801-0.216-6.896-1.508-8.404 1.077-2.423 4.14-1.228 9.44-0.663 14.13l8.421 8.419c8.149-0.433 14.68-6.963 15.114-15.112l-8.557-8.557z"></path>
<path fill="#fff" style="fill: var(--color3, #fff)" d="M19.702 6.842h-7.403c-3.009 0-5.457 2.448-5.457 5.457v7.403c0 3.009 2.448 5.457 5.457 5.457h7.403c3.009 0 5.456-2.448 5.456-5.457v-7.403c0-3.009-2.448-5.457-5.457-5.457zM23.316 19.702c0 1.996-1.618 3.614-3.614 3.614h-7.403c-1.996 0-3.614-1.618-3.614-3.614v-7.404c0-1.996 1.618-3.614 3.614-3.614h7.403c1.996 0 3.614 1.618 3.614 3.614v7.404z"></path>
<path fill="#fff" style="fill: var(--color3, #fff)" d="M16 11.263c-2.612 0-4.737 2.125-4.737 4.737s2.125 4.737 4.737 4.737 4.737-2.125 4.737-4.737c0-2.612-2.125-4.737-4.737-4.737zM16 18.895c-1.599 0-2.895-1.296-2.895-2.894s1.296-2.895 2.895-2.895c1.599 0 2.894 1.296 2.894 2.895s-1.296 2.894-2.894 2.894z"></path>
<path fill="#d1d1d1" style="fill: var(--color7, #d1d1d1)" d="M21.881 11.299c0 0.627-0.508 1.135-1.135 1.135s-1.135-0.508-1.135-1.135c0-0.627 0.508-1.135 1.135-1.135s1.135 0.508 1.135 1.135z"></path>
<path fill="#d1d1d1" style="fill: var(--color7, #d1d1d1)" d="M19.702 6.842h-3.738v1.843h3.738c1.996 0 3.614 1.618 3.614 3.614v7.403c0 1.996-1.618 3.614-3.614 3.614h-3.738v1.843h3.738c3.009 0 5.456-2.448 5.456-5.457v-7.403c0-3.009-2.448-5.457-5.456-5.457z"></path>
<path fill="#d1d1d1" style="fill: var(--color7, #d1d1d1)" d="M16 11.263c-0.012 0-0.024 0.001-0.036 0.001v1.843c0.012-0 0.024-0.001 0.036-0.001 1.599 0 2.894 1.296 2.894 2.895s-1.296 2.894-2.894 2.894c-0.012 0-0.024-0.001-0.036-0.001v1.843c0.012 0 0.024 0.001 0.036 0.001 2.612 0 4.737-2.125 4.737-4.737s-2.125-4.737-4.737-4.737z"></path>
</symbol>
<symbol id="icon-twitter" viewBox="0 0 40 40">
<path fill="#55acee" style="fill: var(--color8, #55acee)" d="M16.001 32c8.836 0 16-7.163 16-16s-7.163-16-16-16c-8.836 0-16 7.163-16 16s7.163 16 16 16z"></path>
<path fill="#f1f2f2" style="fill: var(--color9, #f1f2f2)" d="M25.801 11.499c-0.686 0.304-1.423 0.51-2.197 0.601 0.79-0.473 1.396-1.222 1.682-2.115-0.739 0.438-1.558 0.756-2.428 0.928-0.698-0.743-1.692-1.207-2.792-1.207-2.112 0-3.824 1.713-3.824 3.824 0 0.3 0.034 0.592 0.099 0.872-3.178-0.159-5.997-1.682-7.883-3.996-0.329 0.565-0.518 1.222-0.518 1.923 0 1.327 0.676 2.498 1.701 3.183-0.627-0.020-1.217-0.192-1.732-0.479-0 0.016-0 0.033-0 0.049 0 1.853 1.319 3.399 3.068 3.75-0.321 0.088-0.659 0.134-1.007 0.134-0.247 0-0.486-0.024-0.72-0.068 0.487 1.519 1.899 2.625 3.573 2.656-1.309 1.026-2.958 1.637-4.75 1.637-0.308 0-0.613-0.018-0.912-0.054 1.692 1.086 3.702 1.718 5.862 1.718 7.034 0 10.881-5.828 10.881-10.882 0-0.166-0.004-0.331-0.011-0.495 0.748-0.539 1.396-1.212 1.909-1.979z"></path>
</symbol>
<symbol id="icon-youtube" viewBox="0 0 40 40">
<path fill="#d22215" style="fill: var(--color10, #d22215)" d="M16 32c8.837 0 16-7.163 16-16s-7.163-16-16-16c-8.837 0-16 7.163-16 16s7.163 16 16 16z"></path>
<path fill="#a81411" style="fill: var(--color11, #a81411)" d="M24.053 10.646c-0.48 0.146-0.98 0.272-1.481 0.398-3.555 0.754-8.296-1.293-10.343 2.047-1.707 2.656-2.246 5.979-4.189 8.354l10.374 10.374c6.904-1.045 12.361-6.502 13.405-13.407l-7.766-7.766z"></path>
<path fill="#fff" style="fill: var(--color3, #fff)" d="M21.353 9.521h-10.706c-2.101 0-3.803 1.703-3.803 3.803v5.352c0 2.1 1.703 3.803 3.803 3.803h10.706c2.1 0 3.803-1.703 3.803-3.803v-5.352c0-2.1-1.703-3.803-3.803-3.803zM18.781 16.26l-5.008 2.388c-0.133 0.064-0.288-0.034-0.288-0.181v-4.926c0-0.15 0.158-0.247 0.292-0.179l5.007 2.538c0.149 0.075 0.146 0.289-0.004 0.361z"></path>
<path fill="#d1d1d1" style="fill: var(--color7, #d1d1d1)" d="M21.353 9.521h-5.461v4.913l2.893 1.466c0.149 0.075 0.146 0.289-0.004 0.361l-2.889 1.378v4.841h5.461c2.101 0 3.803-1.703 3.803-3.803v-5.352c0-2.1-1.703-3.803-3.803-3.803z"></path>
</symbol>
</defs>
</svg>
